<?xml version="1.0" standalone="no"?>
<!DOCTYPE svg PUBLIC "-//W3C//DTD SVG 20010904//EN"
 "http://www.w3.org/TR/2001/REC-SVG-20010904/DTD/svg10.dtd">
<svg version="1.0" xmlns="http://www.w3.org/2000/svg"
 width="500.000000pt" height="500.000000pt" viewBox="0 0 500.000000 500.000000"
 preserveAspectRatio="xMidYMid meet">

<g transform="translate(0.000000,500.000000) scale(0.100000,-0.100000)"
fill="#000000" stroke="none">
<path d="M0 2500 l0 -2500 2500 0 2500 0 0 2500 0 2500 -2500 0 -2500 0 0
-2500z m1996 2041 c5 8 3 10 -6 4 -9 -6 -11 -4 -6 4 6 9 12 8 26 -4 14 -12 20
-13 26 -4 5 8 3 10 -6 4 -9 -5 -11 -4 -6 4 6 8 12 9 20 2 7 -6 15 -9 17 -6 3
2 6 -9 7 -25 5 -65 -85 -97 -126 -45 l-20 25 -199 0 -198 0 -135 -135 c-122
-122 -134 -138 -136 -171 -3 -94 -144 -99 -144 -5 0 43 28 72 70 73 31 0 50
15 175 138 l140 138 228 -2 c128 0 231 3 235 8 3 5 -1 6 -8 1 -9 -6 -11 -4 -6
4 6 9 12 8 26 -4 14 -12 20 -13 26 -4z m1000 0 c5 8 3 10 -6 4 -9 -6 -11 -4
-6 4 6 9 12 8 26 -4 14 -12 20 -13 26 -4 5 8 3 10 -6 4 -9 -6 -11 -4 -6 4 6
10 12 9 24 -1 13 -10 67 -13 237 -12 l220 2 140 -138 c125 -123 144 -138 175
-138 64 -1 94 -78 48 -122 -47 -44 -120 -12 -122 54 -2 33 -14 49 -136 171
l-135 135 -198 0 -199 0 -20 -25 c-38 -48 -128 -22 -128 38 0 35 20 50 41 31
13 -12 19 -12 25 -3z m-1010 -216 c24 -24 31 -25 137 -25 l113 0 52 -53 c45
-46 57 -53 83 -49 39 6 79 -30 79 -70 0 -36 -40 -78 -75 -78 -38 0 -77 43 -73
80 2 24 -6 39 -42 75 l-44 45 -108 0 c-79 0 -109 -3 -115 -14 -10 -16 -46 -36
-68 -36 -26 0 -65 46 -65 76 0 66 79 96 126 49z m1131 3 c31 -29 30 -72 -2
-103 -13 -14 -31 -25 -40 -25 -22 0 -58 20 -68 36 -6 11 -36 14 -115 14 l-108
0 -44 -45 c-36 -36 -44 -51 -42 -75 3 -21 -4 -37 -22 -55 -31 -30 -64 -32
-100 -4 -55 43 -16 137 53 127 26 -4 38 3 83 49 l52 53 113 0 c106 0 113 1
137 25 31 31 72 32 103 3z m-1654 -179 c39 -53 -8 -125 -73 -113 -21 4 -46
-16 -160 -130 -128 -129 -134 -137 -135 -177 -1 -44 -18 -64 -63 -76 -58 -14
-103 69 -67 123 12 19 24 24 58 24 40 0 46 4 174 132 124 123 133 135 133 170
0 52 29 80 77 76 25 -2 42 -11 56 -29z m2187 11 c13 -13 20 -33 20 -57 0 -35
10 -48 132 -170 128 -129 134 -133 175 -133 32 0 46 -5 57 -22 41 -58 -3 -137
-69 -124 -42 9 -59 30 -60 76 -1 38 -9 48 -135 176 -114 114 -139 134 -160
130 -33 -6 -76 18 -84 46 -9 36 -8 43 15 72 26 33 79 36 109 6z m-1423 -222
c170 -170 173 -174 173 -215 0 -24 -3 -43 -7 -43 -19 1 -43 29 -43 51 0 17
-41 65 -152 176 l-153 153 -200 0 -201 0 -59 -60 c-44 -44 -59 -67 -57 -83 2
-13 -7 -35 -18 -50 -27 -34 -80 -37 -110 -7 -50 50 -4 138 66 127 28 -5 38 2
95 59 l63 64 216 0 215 0 172 -172z m1212 108 c57 -57 67 -64 95 -59 45 7 86
-27 86 -72 0 -71 -87 -103 -130 -48 -11 15 -20 37 -18 50 2 16 -13 39 -57 83
l-59 60 -201 0 -200 0 -152 -152 c-90 -90 -153 -161 -153 -172 0 -17 -25 -45
-42 -46 -5 0 -8 17 -8 37 0 35 11 49 172 210 l173 173 215 0 216 0 63 -64z
m-1405 -155 l59 -60 -27 -7 c-24 -6 -34 0 -75 40 l-47 46 -99 0 -100 0 -187
-187 c-171 -171 -188 -191 -188 -222 0 -72 -76 -106 -125 -56 -32 31 -32 69 1
102 19 19 32 24 57 20 29 -4 43 8 227 189 l195 194 125 0 126 0 58 -59z m1437
-135 c182 -180 197 -193 227 -188 24 3 37 -2 56 -21 33 -33 33 -71 1 -102 -50
-51 -125 -19 -125 53 0 34 -12 49 -187 224 l-188 188 -100 0 -101 0 -44 -45
c-31 -32 -52 -45 -72 -45 -15 0 -28 3 -28 7 0 4 26 33 57 65 l57 58 126 0 125
-1 196 -193z m-1587 35 c5 -8 -58 -31 -85 -31 -8 0 -161 -147 -341 -327 l-328
-328 0 -108 c0 -103 2 -111 26 -140 62 -73 -25 -165 -100 -106 -36 29 -37 91
-1 115 24 16 25 19 25 138 l0 121 337 337 338 338 62 0 c34 0 64 -4 67 -9z
m1698 -328 l338 -338 0 -119 c0 -114 1 -120 25 -142 35 -32 34 -85 -1 -113
-35 -28 -69 -26 -99 4 -32 31 -32 66 0 103 23 28 25 37 25 138 l0 109 -327
327 c-226 227 -335 328 -349 328 -29 0 -86 25 -77 33 3 4 34 7 67 7 l61 0 337
-337z m-2277 292 c50 -49 17 -125 -54 -125 -32 0 -47 -11 -148 -112 -62 -62
-113 -119 -113 -126 0 -8 11 -27 25 -44 33 -39 32 -63 -5 -100 -25 -24 -36
-29 -58 -23 -43 11 -62 34 -62 76 0 30 6 42 25 55 16 11 25 26 25 43 0 20 28
54 123 149 110 110 123 126 119 152 -3 21 3 36 21 54 33 33 71 33 102 1z
m2492 -1 c18 -18 24 -33 21 -54 -4 -26 9 -42 119 -152 89 -89 123 -129 123
-147 0 -13 11 -34 25 -47 62 -58 -1 -158 -78 -123 -24 11 -47 46 -47 74 0 7
11 27 25 43 14 17 25 36 25 43 0 8 -51 64 -112 126 -100 100 -117 113 -147
113 -74 0 -110 86 -55 129 36 28 70 26 101 -5z m-1476 -135 l176 -118 114 81
c63 44 141 99 174 123 l60 42 139 -26 139 -26 160 -249 161 -249 -28 -76 c-16
-42 -30 -86 -33 -97 -4 -16 24 -61 100 -166 l105 -145 -169 -179 c-92 -98
-169 -183 -169 -189 0 -5 15 -91 34 -190 l34 -180 -116 -120 c-64 -66 -122
-124 -129 -128 -9 -5 -93 53 -258 178 -135 103 -247 190 -249 194 -3 4 -12 49
-20 101 -9 52 -18 105 -21 116 -4 18 13 33 103 92 90 60 252 202 230 202 -4 0
-82 -27 -174 -60 -92 -33 -175 -60 -184 -60 -9 0 -92 27 -184 60 -92 33 -170
60 -174 60 -22 0 140 -142 230 -202 90 -59 107 -74 103 -92 -3 -11 -12 -64
-21 -116 -8 -52 -18 -98 -20 -102 -3 -4 -115 -91 -250 -193 -163 -124 -248
-183 -257 -178 -7 4 -66 62 -130 129 l-117 121 35 179 c19 98 35 184 35 189 0
6 -76 91 -169 189 l-169 179 105 145 c76 105 104 150 100 166 -3 11 -17 55
-33 97 l-28 76 160 248 160 249 125 27 c68 14 129 24 134 21 6 -3 89 -59 186
-123z m-687 -141 c-71 -116 -130 -190 -233 -293 l-121 -120 0 -264 0 -264 25
-23 c35 -32 34 -85 -1 -113 -35 -28 -69 -26 -99 4 -33 32 -33 78 0 109 l25 23
0 274 0 274 202 202 c112 112 204 203 206 203 2 0 0 -6 -4 -12z m2136 -667 l0
-274 25 -23 c33 -31 33 -77 0 -109 -30 -30 -64 -32 -99 -4 -35 28 -36 81 -1
113 l25 23 0 264 0 264 -121 120 c-111 111 -142 148 -215 267 -17 29 43 -26
180 -162 l206 -205 0 -274z m-2831 283 c12 -15 21 -38 21 -51 0 -35 -42 -73
-82 -73 -47 0 -108 -61 -108 -109 0 -74 -85 -110 -129 -55 -12 15 -21 38 -21
51 0 35 42 73 82 73 49 0 108 61 108 112 0 49 28 78 74 78 25 0 40 -7 55 -26z
m3231 6 c13 -13 20 -33 20 -58 0 -31 7 -45 40 -77 32 -31 47 -39 70 -37 37 4
80 -35 80 -73 0 -34 -42 -75 -76 -75 -40 0 -74 36 -74 79 0 49 -60 111 -107
111 -41 0 -83 38 -83 73 0 13 9 36 21 51 26 33 79 36 109 6z m-3007 -481 c17
-22 22 -55 11 -84 -9 -21 -62 -48 -82 -40 -10 4 -31 -9 -59 -37 -35 -34 -43
-49 -43 -79 0 -46 -28 -73 -77 -73 -42 0 -73 31 -73 75 0 48 37 75 94 69 10
-1 36 15 57 36 33 32 39 44 39 80 0 34 5 47 27 64 33 26 79 21 106 -11z m2781
10 c21 -16 26 -29 26 -63 0 -36 6 -48 39 -80 21 -21 47 -37 57 -36 84 9 126
-69 69 -125 -48 -49 -125 -16 -125 54 0 30 -8 44 -43 79 -28 28 -49 41 -59 37
-25 -10 -77 22 -84 52 -9 36 6 75 36 90 35 18 53 16 84 -8z m-344 -356 c11
-17 25 -23 49 -23 88 0 114 -119 33 -148 -59 -20 -115 29 -99 87 3 13 -5 29
-24 47 l-29 28 0 129 c0 119 2 131 23 156 l22 27 5 -140 c4 -101 9 -147 20
-163z m-2130 122 l0 -131 -29 -28 c-19 -18 -27 -34 -24 -47 16 -58 -40 -107
-99 -87 -77 27 -56 148 26 148 17 0 40 9 53 22 22 20 23 28 23 161 l0 140 25
-23 c24 -23 25 -28 25 -155z m130 -135 l0 -125 -145 -145 -145 -145 0 -93 c0
-86 2 -97 25 -124 30 -36 32 -71 5 -98 -29 -29 -66 -35 -96 -16 -49 33 -51 89
-5 130 19 17 21 30 21 120 l0 101 145 145 145 145 0 145 0 145 25 -30 c23 -28
24 -37 25 -155z m1995 -250 l145 -145 0 -101 c0 -90 2 -103 21 -120 46 -41 44
-97 -5 -130 -74 -48 -155 56 -91 116 23 22 25 30 25 119 l0 96 -145 145 -145
145 0 123 c0 112 2 126 23 153 l22 31 3 -144 3 -144 144 -144z m-2350 327 c36
-52 4 -119 -58 -121 -32 -1 -48 -12 -112 -76 l-75 -74 0 -74 c0 -67 2 -76 25
-94 41 -32 33 -98 -15 -123 -22 -11 -35 -12 -59 -4 -56 20 -69 82 -26 125 23
23 25 33 25 107 l0 82 80 80 c70 70 80 84 80 115 0 20 7 45 15 57 26 36 95 36
120 0z m2630 0 c8 -12 15 -37 15 -57 0 -31 10 -45 80 -115 l80 -80 0 -82 c0
-74 2 -84 25 -107 61 -62 -8 -161 -84 -121 -49 25 -57 91 -16 123 23 18 25 27
25 94 l0 74 -75 74 c-64 64 -80 74 -105 72 -61 -7 -102 72 -65 125 26 36 95
36 120 0z m-1120 -493 c135 -75 245 -141 245 -145 0 -5 -48 -86 -107 -179
l-107 -170 -24 43 c-14 23 -27 44 -28 46 -2 2 -54 -44 -115 -103 -61 -58 -115
-106 -119 -106 -4 0 -58 48 -119 106 -61 59 -113 105 -115 103 -1 -2 -14 -23
-28 -46 l-24 -43 -108 171 c-59 94 -106 175 -104 180 4 11 477 277 495 278 7
1 123 -60 258 -135z m-1249 53 c37 -32 37 -81 1 -113 l-27 -23 0 -159 0 -158
-35 -34 c-24 -23 -35 -43 -35 -62 0 -36 -40 -78 -75 -78 -35 0 -75 42 -75 78
0 46 30 76 78 76 28 1 48 8 66 25 26 24 26 26 26 170 0 142 -1 147 -25 170
-33 30 -33 74 0 106 30 31 66 32 101 2z m134 -385 l-1 -377 -28 -30 c-20 -21
-28 -40 -28 -64 1 -72 -90 -105 -135 -50 -41 49 0 134 61 127 18 -1 37 5 50
16 21 19 21 27 21 379 0 358 0 361 22 384 19 20 23 21 31 8 4 -9 8 -185 7
-393z m1955 383 c33 -32 33 -74 0 -105 -24 -23 -25 -27 -25 -170 0 -145 0
-147 26 -171 18 -17 38 -24 66 -25 48 0 78 -30 78 -76 0 -36 -40 -78 -75 -78
-35 0 -75 42 -75 78 0 19 -11 39 -35 62 l-35 34 0 158 0 159 -27 23 c-36 32
-36 81 1 113 35 30 71 29 101 -2z m-193 -2 c17 -15 18 -40 18 -378 0 -354 0
-362 21 -381 13 -11 32 -17 50 -16 61 7 102 -78 62 -127 -46 -55 -137 -22
-136 50 0 24 -8 43 -28 64 l-28 30 -1 377 c-1 208 1 382 5 388 9 14 15 13 37
-7z m-1572 -339 c0 -158 6 -182 44 -168 49 19 110 -52 88 -101 -37 -81 -152
-59 -152 29 0 18 -7 39 -15 46 -12 10 -15 46 -15 203 l0 190 25 -23 c25 -23
25 -26 25 -176z m1374 -195 c-9 -10 -18 -35 -19 -55 -5 -83 -112 -96 -147 -18
-17 36 11 90 51 99 17 3 35 4 41 0 6 -4 17 -1 25 5 12 10 15 43 15 160 0 138
1 149 23 176 l22 29 3 -189 c2 -164 0 -191 -14 -207z m-1035 -15 c12 -15 21
-39 21 -53 0 -20 20 -47 80 -106 44 -44 80 -84 80 -90 0 -6 -65 -75 -145 -155
l-145 -145 0 -117 c0 -112 1 -118 25 -142 33 -33 33 -79 0 -111 -30 -31 -66
-32 -100 -3 -36 32 -37 80 -2 116 26 27 27 31 27 158 l0 129 135 135 135 135
-62 62 c-54 55 -67 63 -99 63 -51 0 -81 26 -82 72 -1 50 25 78 74 78 29 0 42
-6 58 -26z m761 16 c28 -15 40 -61 25 -97 -14 -33 -32 -43 -79 -43 -26 0 -43
-12 -94 -63 l-62 -62 135 -135 135 -135 0 -131 c0 -126 1 -131 25 -154 35 -33
35 -91 -1 -119 -35 -28 -69 -26 -99 4 -33 32 -33 78 0 111 24 24 25 30 25 142
l0 117 -145 145 c-80 80 -145 149 -145 155 0 6 36 46 80 90 60 59 80 86 80
106 0 40 36 79 71 79 17 0 39 -4 49 -10z m-885 -185 c27 -26 31 -49 16 -88
-10 -26 -62 -53 -84 -44 -18 7 -187 -162 -187 -187 0 -10 11 -27 25 -38 51
-40 19 -138 -45 -138 -72 0 -107 86 -55 134 17 16 25 34 25 57 0 30 12 46 90
124 72 71 88 93 84 111 -6 24 18 79 38 87 32 13 70 6 93 -18z m1000 19 c23 -9
48 -62 41 -88 -4 -18 12 -40 84 -111 78 -78 90 -94 90 -124 0 -23 8 -41 25
-57 49 -45 15 -134 -51 -134 -68 0 -102 97 -49 138 14 11 25 28 25 39 0 21
-172 197 -183 187 -10 -10 -56 5 -77 26 -58 58 16 154 95 124z m-625 -254 c5
0 18 -10 30 -22 20 -22 25 -52 14 -83 -9 -22 -60 -47 -89 -43 -17 2 -36 -9
-65 -37 -22 -21 -40 -43 -40 -48 0 -5 12 -23 26 -40 65 -77 -40 -174 -111
-102 -32 31 -32 66 0 103 14 17 25 37 25 45 0 9 24 41 52 73 33 36 52 64 50
76 -7 39 51 94 86 82 8 -2 18 -4 22 -4z m244 -20 c10 -10 19 -31 21 -48 1 -20
19 -50 53 -88 29 -32 52 -64 52 -72 0 -8 12 -28 26 -45 20 -24 24 -37 20 -61
-17 -87 -135 -87 -152 0 -4 24 0 37 20 61 14 17 26 35 26 40 0 5 -18 26 -39
47 -32 31 -47 39 -82 40 -48 3 -79 32 -79 75 0 71 81 102 134 51z"/>
<path d="M1996 3669 c-49 -10 -90 -20 -91 -21 -23 -31 -288 -456 -288 -463 0
-6 14 -47 31 -92 18 -45 32 -86 32 -91 0 -5 -45 -71 -101 -147 l-100 -138 58
-61 c261 -272 274 -287 269 -303 -2 -10 -19 -94 -36 -186 l-31 -168 79 -87
c44 -48 89 -96 101 -106 21 -19 22 -19 245 150 l224 169 12 65 c24 139 33 117
-82 193 -81 53 -132 98 -241 212 l-139 145 124 -44 c67 -24 194 -69 280 -101
l158 -57 158 57 c86 32 213 77 280 101 l124 44 -139 -145 c-109 -114 -160
-159 -241 -212 -115 -76 -106 -54 -81 -193 l11 -65 222 -167 c122 -93 225
-168 228 -168 3 0 49 47 102 104 l96 104 -30 163 c-16 90 -32 174 -35 186 -5
23 2 32 273 314 l54 56 -97 133 c-53 73 -99 138 -101 145 -3 7 9 50 27 96 18
46 32 89 32 94 0 8 -272 445 -288 463 -1 1 -56 12 -121 24 l-119 21 -178 -127
-177 -126 -187 125 c-104 69 -197 125 -208 124 -11 -1 -60 -10 -109 -20z m107
-578 c64 -10 120 -21 123 -24 8 -7 -33 -77 -54 -94 -30 -24 -59 -13 -158 63
-54 42 -101 79 -104 81 -2 2 14 1 35 -2 22 -3 93 -14 158 -24z m986 25 c-2 -2
-49 -38 -103 -80 -105 -80 -132 -90 -165 -57 -25 25 -54 81 -47 89 4 3 70 16
149 28 152 23 173 26 166 20z"/>
<path d="M2285 1805 c-110 -63 -204 -115 -209 -118 -9 -3 123 -226 135 -227 3
0 14 15 25 34 l19 34 123 -115 122 -115 122 115 122 115 22 -36 22 -36 67 104
c37 57 69 108 71 114 4 11 -397 239 -426 243 -8 1 -105 -50 -215 -112z"/>
</g>
</svg>
