<?xml version="1.0" standalone="no"?>
<!DOCTYPE svg PUBLIC "-//W3C//DTD SVG 20010904//EN"
 "http://www.w3.org/TR/2001/REC-SVG-20010904/DTD/svg10.dtd">
<svg version="1.0" xmlns="http://www.w3.org/2000/svg"
 width="20.000000pt" height="20.000000pt" viewBox="0 0 500.000000 500.000000"
 preserveAspectRatio="xMidYMid meet">

<g transform="translate(0.000000,500.000000) scale(0.100000,-0.100000)"
fill="#000000" stroke="none">
<path d="M1820 3811 c-180 -63 -201 -312 -35 -403 l50 -28 228 0 227 0 0 -120
0 -120 -85 0 c-120 0 -125 -6 -125 -153 l0 -114 -102 -27 c-567 -152 -840
-513 -884 -1169 l-7 -107 -48 0 c-39 0 -51 -4 -68 -26 -19 -24 -21 -40 -21
-165 0 -148 8 -180 47 -198 16 -8 176 -11 514 -11 516 0 536 2 553 45 3 9 6
81 6 159 0 130 -2 146 -21 170 -15 19 -30 26 -55 26 -30 0 -34 3 -34 28 0 64
47 209 82 255 13 18 18 16 71 -35 103 -100 225 -148 373 -148 205 0 377 111
477 308 62 123 60 122 323 122 l212 0 4 -89 c5 -137 -8 -131 274 -131 l233 0
20 26 c21 26 21 35 21 604 0 569 0 578 -21 604 l-20 26 -233 0 c-276 0 -268 3
-274 -111 l-4 -69 -158 0 c-86 0 -225 -3 -307 -7 l-151 -6 -3 76 c-6 106 -17
117 -126 117 l-83 0 0 119 0 120 238 3 239 3 41 28 c61 40 95 97 100 167 7
100 -35 176 -122 223 -41 22 -44 22 -666 24 -592 3 -628 2 -680 -16z m1284
-142 c53 -24 55 -100 3 -134 -21 -14 -93 -15 -636 -13 l-613 3 -19 24 c-28 35
-25 85 7 110 26 21 35 21 630 21 427 0 610 -3 628 -11z m-584 -409 l0 -120
-40 0 -40 0 0 120 0 120 40 0 40 0 0 -120z m210 -335 c0 -123 -28 -115 405
-115 l365 0 0 -279 0 -279 -227 -4 c-190 -3 -235 -7 -268 -21 -86 -38 -113
-65 -162 -164 -78 -155 -179 -232 -327 -249 -115 -14 -222 30 -321 131 -81 83
-100 95 -151 95 -30 0 -44 -7 -73 -38 -72 -76 -135 -230 -156 -379 l-7 -53
-285 0 -286 0 6 118 c26 499 216 801 607 962 63 26 214 70 322 94 43 10 58 50
58 161 l0 95 250 0 250 0 0 -75z m1170 -415 l0 -490 -125 0 -125 0 0 490 0
490 125 0 125 0 0 -490z m-1980 -1135 l0 -55 -410 0 -410 0 0 55 0 55 410 0
410 0 0 -55z"/>
</g>
</svg>
